<?xml version="1.0"?>
<svg xmlns="http://www.w3.org/2000/svg" xmlns:xlink="http://www.w3.org/1999/xlink" xmlns:svgjs="http://svgjs.com/svgjs" version="1.1" width="512" height="512" x="0" y="0" viewBox="0 0 24 24" style="enable-background:new 0 0 512 512" xml:space="preserve"><g><path xmlns="http://www.w3.org/2000/svg" d="M22.5,3.976H19.414a1,1,0,0,0-.707,1.707l1.086,1.086h0l-3.586,3.585a1.024,1.024,0,0,1-1.415,0l-.17-.171a3.071,3.071,0,0,0-4.243,0l-5.1,5.1A1,1,0,1,0,6.7,16.7l5.1-5.1a1.023,1.023,0,0,1,1.415,0l.17.171a3.073,3.073,0,0,0,4.243,0l3.586-3.586h0l1.086,1.086A1,1,0,0,0,24,8.562V5.476A1.5,1.5,0,0,0,22.5,3.976Z" fill="#000000" data-original="#000000"/><path xmlns="http://www.w3.org/2000/svg" d="M23,21.976H5a3,3,0,0,1-3-3V1A1,1,0,0,0,0,1V18.976a5.006,5.006,0,0,0,5,5H23a1,1,0,0,0,0-2Z" fill="#000000" data-original="#000000"/></g></svg>
